<svg width="15" height="15" viewBox="0 0 15 15" fill="none" xmlns="http://www.w3.org/2000/svg">
<path d="M10.5663 1.7771H4.73301C3.12218 1.7771 1.81635 3.08294 1.81635 4.69377V10.5271C1.81635 12.1379 3.12218 13.4438 4.73301 13.4438H10.5663C12.1772 13.4438 13.483 12.1379 13.483 10.5271V4.69377C13.483 3.08294 12.1772 1.7771 10.5663 1.7771Z" stroke="white" stroke-linecap="round" stroke-linejoin="round"/>
<path d="M9.98298 7.24278C10.055 7.72826 9.97205 8.22408 9.74601 8.65971C9.51997 9.09534 9.16232 9.44861 8.72393 9.66926C8.28555 9.88991 7.78874 9.96671 7.30419 9.88874C6.81964 9.81077 6.37201 9.582 6.02497 9.23496C5.67794 8.88792 5.44916 8.44029 5.37119 7.95574C5.29322 7.47119 5.37002 6.97439 5.59067 6.536C5.81133 6.09761 6.16459 5.73997 6.60022 5.51392C7.03586 5.28788 7.53167 5.20496 8.01715 5.27695C8.51236 5.35038 8.97081 5.58114 9.3248 5.93513C9.6788 6.28912 9.90955 6.74758 9.98298 7.24278Z" stroke="white" stroke-linecap="round" stroke-linejoin="round"/>
<path d="M10.858 4.4021H10.8638" stroke="white" stroke-linecap="round" stroke-linejoin="round"/>
</svg>
