<svg width="154" height="34" viewBox="0 0 154 34" fill="none" xmlns="http://www.w3.org/2000/svg">
<path d="M45.106 22.6914C45.106 23.4336 44.9536 24.0039 44.6489 24.4023C44.3521 24.8008 43.856 25 43.1607 25C42.5044 25 42.0396 24.8008 41.7661 24.4023C41.5005 24.0039 41.3677 23.4336 41.3677 22.6914V10.3047C41.3677 9.5625 41.5005 8.99219 41.7661 8.59375C42.0396 8.19531 42.5044 7.99609 43.1607 7.99609C43.856 7.99609 44.3521 8.19531 44.6489 8.59375C44.9536 8.99219 45.106 9.5625 45.106 10.3047V22.6914Z" fill="#E4E4FF"/>
<path d="M46.2408 19.0938C46.2408 18.2656 46.3736 17.4844 46.6393 16.75C46.9127 16.0078 47.3189 15.3594 47.858 14.8047C48.4049 14.25 49.0846 13.8086 49.8971 13.4805C50.7174 13.1523 51.6783 12.9883 52.7799 12.9883C53.8346 12.9883 54.7682 13.1406 55.5807 13.4453C56.3932 13.75 57.0768 14.1758 57.6314 14.7227C58.1861 15.2617 58.608 15.9062 58.8971 16.6562C59.1861 17.3984 59.3307 18.2109 59.3307 19.0938C59.3307 19.9141 59.1939 20.6914 58.9205 21.4258C58.6471 22.1523 58.2369 22.793 57.69 23.3477C57.1432 23.8945 56.4596 24.332 55.6393 24.6602C54.8189 24.9805 53.8658 25.1406 52.7799 25.1406C51.7096 25.1406 50.7643 24.9883 49.9439 24.6836C49.1314 24.3711 48.4479 23.9453 47.8932 23.4062C47.3463 22.8594 46.9322 22.2188 46.651 21.4844C46.3775 20.7422 46.2408 19.9453 46.2408 19.0938ZM50.1432 19.0938C50.1432 19.6094 50.19 20.1016 50.2838 20.5703C50.3775 21.0312 50.526 21.4375 50.7291 21.7891C50.94 22.1406 51.2135 22.4219 51.5494 22.6328C51.8854 22.8359 52.2955 22.9375 52.7799 22.9375C53.2252 22.9375 53.6119 22.8438 53.94 22.6562C54.276 22.4688 54.5494 22.207 54.7604 21.8711C54.9791 21.5352 55.1432 21.1328 55.2525 20.6641C55.3619 20.1875 55.4166 19.6641 55.4166 19.0938C55.4166 18.5781 55.3658 18.0898 55.2643 17.6289C55.1705 17.1602 55.0182 16.75 54.8072 16.3984C54.5963 16.0391 54.3229 15.7578 53.9869 15.5547C53.6588 15.3438 53.2564 15.2383 52.7799 15.2383C52.3033 15.2383 51.8971 15.3398 51.5611 15.543C51.2252 15.7461 50.9518 16.0234 50.7408 16.375C50.5299 16.7266 50.3775 17.1367 50.2838 17.6055C50.19 18.0742 50.1432 18.5703 50.1432 19.0938Z" fill="#E4E4FF"/>
<path d="M68.9499 22.7383C68.7389 23.1289 68.4811 23.4609 68.1764 23.7344C67.8796 24.0078 67.5475 24.2344 67.1804 24.4141C66.821 24.5859 66.4343 24.7148 66.0202 24.8008C65.6139 24.8789 65.196 24.918 64.7663 24.918C64.0475 24.918 63.3913 24.7891 62.7975 24.5312C62.2038 24.2734 61.6921 23.9023 61.2624 23.418C60.8405 22.9258 60.5124 22.3242 60.278 21.6133C60.0436 20.9023 59.9264 20.0898 59.9264 19.1758C59.9264 18.3164 60.0358 17.5117 60.2546 16.7617C60.4733 16.0117 60.7897 15.3594 61.2038 14.8047C61.6257 14.25 62.1413 13.8125 62.7507 13.4922C63.36 13.1719 64.0554 13.0117 64.8366 13.0117C65.7272 13.0117 66.5163 13.1836 67.2038 13.5273C67.8991 13.8711 68.4968 14.4336 68.9968 15.2148V14.9102C68.9968 14.3477 69.1491 13.9258 69.4538 13.6445C69.7663 13.3555 70.196 13.2109 70.7429 13.2109C71.071 13.2109 71.3483 13.2656 71.5749 13.375C71.8014 13.4766 71.9811 13.6328 72.1139 13.8438C72.2468 14.0469 72.3405 14.3008 72.3952 14.6055C72.4577 14.9023 72.4889 15.2422 72.4889 15.625V23.4766C72.4889 24.4297 72.3679 25.2812 72.1257 26.0312C71.8913 26.7812 71.5241 27.4141 71.0241 27.9297C70.5241 28.4453 69.8835 28.8359 69.1022 29.1016C68.321 29.375 67.3913 29.5117 66.3132 29.5117C65.5554 29.5117 64.8835 29.4766 64.2975 29.4062C63.7194 29.3438 63.2194 29.2461 62.7975 29.1133C62.3757 28.9648 62.0554 28.8008 61.8366 28.6211C61.6257 28.4414 61.5202 28.207 61.5202 27.918C61.5202 27.7539 61.5436 27.5977 61.5905 27.4492C61.6374 27.3008 61.7077 27.168 61.8014 27.0508C61.903 26.9414 62.0319 26.8516 62.1882 26.7812C62.3522 26.7188 62.5514 26.6875 62.7858 26.6875C63.0358 26.6875 63.2858 26.7031 63.5358 26.7344C63.7936 26.7656 64.0593 26.7969 64.3327 26.8281C64.6139 26.8672 64.9069 26.9023 65.2116 26.9336C65.5241 26.9648 65.86 26.9805 66.2194 26.9805C66.6491 26.9805 67.0319 26.9375 67.3679 26.8516C67.7038 26.7656 67.9889 26.6133 68.2233 26.3945C68.4577 26.1758 68.6374 25.8828 68.7624 25.5156C68.8874 25.1562 68.9499 24.6953 68.9499 24.1328V22.7383ZM68.9499 19.0938C68.9499 18.5234 68.9069 18.0039 68.821 17.5352C68.7429 17.0664 68.6061 16.668 68.4108 16.3398C68.2155 16.0039 67.9538 15.7461 67.6257 15.5664C67.2975 15.3789 66.8874 15.2852 66.3952 15.2852C65.9108 15.2852 65.5085 15.3828 65.1882 15.5781C64.8757 15.7734 64.6257 16.043 64.4382 16.3867C64.2507 16.7305 64.1179 17.1328 64.0397 17.5938C63.9694 18.0547 63.9343 18.5469 63.9343 19.0703C63.9343 20.2656 64.1452 21.1641 64.5671 21.7656C64.9889 22.3672 65.6022 22.668 66.4069 22.668C66.7819 22.6602 67.1218 22.5898 67.4264 22.457C67.7389 22.3164 68.0085 22.1016 68.235 21.8125C68.4616 21.5234 68.6374 21.1562 68.7624 20.7109C68.8874 20.2656 68.9499 19.7266 68.9499 19.0938Z" fill="#E4E4FF"/>
<path d="M73.5652 19.0938C73.5652 18.2656 73.698 17.4844 73.9636 16.75C74.2371 16.0078 74.6433 15.3594 75.1824 14.8047C75.7293 14.25 76.4089 13.8086 77.2214 13.4805C78.0418 13.1523 79.0027 12.9883 80.1043 12.9883C81.1589 12.9883 82.0925 13.1406 82.905 13.4453C83.7175 13.75 84.4011 14.1758 84.9558 14.7227C85.5105 15.2617 85.9324 15.9062 86.2214 16.6562C86.5105 17.3984 86.655 18.2109 86.655 19.0938C86.655 19.9141 86.5183 20.6914 86.2449 21.4258C85.9714 22.1523 85.5613 22.793 85.0144 23.3477C84.4675 23.8945 83.7839 24.332 82.9636 24.6602C82.1433 24.9805 81.1902 25.1406 80.1043 25.1406C79.0339 25.1406 78.0886 24.9883 77.2683 24.6836C76.4558 24.3711 75.7722 23.9453 75.2175 23.4062C74.6707 22.8594 74.2566 22.2188 73.9753 21.4844C73.7019 20.7422 73.5652 19.9453 73.5652 19.0938ZM77.4675 19.0938C77.4675 19.6094 77.5144 20.1016 77.6082 20.5703C77.7019 21.0312 77.8503 21.4375 78.0535 21.7891C78.2644 22.1406 78.5378 22.4219 78.8738 22.6328C79.2097 22.8359 79.6199 22.9375 80.1043 22.9375C80.5496 22.9375 80.9363 22.8438 81.2644 22.6562C81.6003 22.4688 81.8738 22.207 82.0847 21.8711C82.3035 21.5352 82.4675 21.1328 82.5769 20.6641C82.6863 20.1875 82.741 19.6641 82.741 19.0938C82.741 18.5781 82.6902 18.0898 82.5886 17.6289C82.4949 17.1602 82.3425 16.75 82.1316 16.3984C81.9207 16.0391 81.6472 15.7578 81.3113 15.5547C80.9832 15.3438 80.5808 15.2383 80.1043 15.2383C79.6277 15.2383 79.2214 15.3398 78.8855 15.543C78.5496 15.7461 78.2761 16.0234 78.0652 16.375C77.8543 16.7266 77.7019 17.1367 77.6082 17.6055C77.5144 18.0742 77.4675 18.5703 77.4675 19.0938Z" fill="#E4E4FF"/>
<path d="M91.6805 9.03906C91.6805 9.29688 91.6219 9.52734 91.5047 9.73047C91.3875 9.92578 91.2352 10.0898 91.0477 10.2227C90.8602 10.3555 90.6414 10.457 90.3914 10.5273C90.1493 10.5898 89.8993 10.6211 89.6414 10.6211C89.368 10.6211 89.1063 10.5859 88.8563 10.5156C88.6141 10.4453 88.3993 10.3438 88.2118 10.2109C88.0243 10.0703 87.8758 9.90234 87.7664 9.70703C87.6571 9.51172 87.6024 9.28906 87.6024 9.03906C87.6024 8.8125 87.6532 8.60547 87.7547 8.41797C87.8641 8.22266 88.0086 8.05469 88.1883 7.91406C88.368 7.77344 88.5829 7.66406 88.8329 7.58594C89.0829 7.50781 89.3563 7.46875 89.6532 7.46875C89.911 7.46875 90.161 7.50391 90.4032 7.57422C90.6532 7.64453 90.8719 7.74609 91.0594 7.87891C91.2469 8.01172 91.3954 8.17578 91.5047 8.37109C91.6219 8.56641 91.6805 8.78906 91.6805 9.03906ZM91.5047 22.6914C91.5047 23.4336 91.3524 24.0039 91.0477 24.4023C90.7508 24.8008 90.2547 25 89.5594 25C88.9032 25 88.4383 24.8008 88.1649 24.4023C87.8993 24.0039 87.7664 23.4336 87.7664 22.6914V15.5195C87.7664 14.7773 87.8993 14.207 88.1649 13.8086C88.4383 13.4102 88.9032 13.2109 89.5594 13.2109C90.2547 13.2109 90.7508 13.4102 91.0477 13.8086C91.3524 14.207 91.5047 14.7773 91.5047 15.5195V22.6914Z" fill="#E4E4FF"/>
<path d="M96.8935 19.0703C96.8935 19.5938 96.9325 20.082 97.0107 20.5352C97.0966 20.9883 97.2372 21.3867 97.4325 21.7305C97.6357 22.0664 97.9013 22.332 98.2294 22.5273C98.5653 22.7227 98.9794 22.8203 99.4716 22.8203C99.9247 22.8203 100.304 22.7266 100.609 22.5391C100.921 22.3438 101.171 22.0781 101.359 21.7422C101.546 21.3984 101.679 20.9961 101.757 20.5352C101.843 20.0742 101.886 19.5742 101.886 19.0352C101.886 18.6055 101.855 18.168 101.792 17.7227C101.73 17.2695 101.613 16.8594 101.441 16.4922C101.269 16.125 101.031 15.8242 100.726 15.5898C100.421 15.3555 100.023 15.2383 99.5302 15.2383C99.038 15.2383 98.62 15.3164 98.2763 15.4727C97.9403 15.6289 97.6669 15.8672 97.456 16.1875C97.2528 16.5078 97.1083 16.9102 97.0224 17.3945C96.9364 17.8711 96.8935 18.4297 96.8935 19.0703ZM96.8818 15.5195C97.0771 15.1055 97.3271 14.7422 97.6318 14.4297C97.9364 14.1172 98.2724 13.8555 98.6396 13.6445C99.0068 13.4336 99.3896 13.2773 99.788 13.1758C100.195 13.0664 100.597 13.0117 100.995 13.0117C101.714 13.0117 102.363 13.1719 102.941 13.4922C103.519 13.8125 104.011 14.25 104.417 14.8047C104.831 15.3516 105.148 16 105.367 16.75C105.585 17.4922 105.695 18.2891 105.695 19.1406C105.695 20.0234 105.577 20.832 105.343 21.5664C105.117 22.3008 104.792 22.9336 104.37 23.4648C103.956 23.9883 103.456 24.3984 102.87 24.6953C102.292 24.9922 101.648 25.1406 100.937 25.1406C100.062 25.1406 99.2802 24.9375 98.5927 24.5312C97.9052 24.125 97.3349 23.5547 96.8818 22.8203V27.0391C96.8818 27.7812 96.7294 28.3516 96.4247 28.75C96.1278 29.1484 95.6318 29.3477 94.9364 29.3477C94.2802 29.3477 93.8153 29.1484 93.5419 28.75C93.2763 28.3516 93.1435 27.7812 93.1435 27.0391V15.5195C93.1435 14.7773 93.2763 14.207 93.5419 13.8086C93.8153 13.4102 94.2802 13.2109 94.9364 13.2109C95.6318 13.2109 96.1278 13.4102 96.4247 13.8086C96.7294 14.207 96.8818 14.7773 96.8818 15.5195Z" fill="#E4E4FF"/>
<path d="M109.818 16.3516C109.818 16.6562 109.951 16.8945 110.216 17.0664C110.482 17.2305 110.849 17.3672 111.318 17.4766C111.763 17.5781 112.22 17.6758 112.689 17.7695C113.158 17.8633 113.615 17.9727 114.06 18.0977C114.505 18.2148 114.923 18.3555 115.314 18.5195C115.704 18.6836 116.048 18.8906 116.345 19.1406C116.642 19.3828 116.876 19.6797 117.048 20.0312C117.22 20.375 117.306 20.7891 117.306 21.2734C117.306 21.8828 117.181 22.4258 116.931 22.9023C116.681 23.3711 116.326 23.7695 115.865 24.0977C115.412 24.4258 114.869 24.6797 114.236 24.8594C113.603 25.0391 112.904 25.1328 112.138 25.1406C111.412 25.1406 110.712 25.0938 110.04 25C109.369 24.9141 108.771 24.7773 108.247 24.5898C107.732 24.4023 107.318 24.1719 107.005 23.8984C106.693 23.6172 106.537 23.2891 106.537 22.9141C106.537 22.5859 106.642 22.332 106.853 22.1523C107.064 21.9727 107.333 21.8828 107.662 21.8828C107.787 21.8828 107.935 21.9062 108.107 21.9531C108.279 22 108.466 22.0586 108.669 22.1289C108.872 22.1992 109.087 22.2773 109.314 22.3633C109.548 22.4414 109.79 22.5117 110.04 22.5742C110.353 22.6602 110.673 22.7305 111.001 22.7852C111.337 22.832 111.681 22.8555 112.033 22.8555C112.251 22.8555 112.466 22.8359 112.677 22.7969C112.888 22.75 113.076 22.6836 113.24 22.5977C113.412 22.5039 113.552 22.3867 113.662 22.2461C113.771 22.1055 113.837 21.9336 113.861 21.7305C113.884 21.6836 113.904 21.6367 113.919 21.5898C113.935 21.543 113.943 21.4883 113.943 21.4258C113.943 21.207 113.841 21.0117 113.638 20.8398C113.443 20.668 113.165 20.5312 112.806 20.4297C112.204 20.2891 111.63 20.1602 111.083 20.043C110.537 19.9258 110.029 19.8008 109.56 19.668C109.099 19.5352 108.677 19.3828 108.294 19.2109C107.919 19.0391 107.599 18.8281 107.333 18.5781C107.076 18.3281 106.872 18.0273 106.724 17.6758C106.583 17.3242 106.513 16.8984 106.513 16.3984C106.513 15.8594 106.634 15.3789 106.876 14.957C107.126 14.5273 107.482 14.168 107.943 13.8789C108.404 13.5898 108.962 13.3711 109.619 13.2227C110.275 13.0664 111.017 12.9883 111.845 12.9883C113.329 12.9883 114.458 13.168 115.232 13.5273C116.013 13.8789 116.404 14.3398 116.404 14.9102C116.404 15.2305 116.298 15.4766 116.087 15.6484C115.876 15.8125 115.622 15.8945 115.326 15.8945C115.169 15.8945 115.005 15.8672 114.833 15.8125C114.669 15.75 114.47 15.6836 114.236 15.6133C114.001 15.5352 113.72 15.4688 113.392 15.4141C113.072 15.3516 112.673 15.3203 112.197 15.3203C111.837 15.3203 111.509 15.3359 111.212 15.3672C110.923 15.3984 110.673 15.4531 110.462 15.5312C110.259 15.6094 110.099 15.7148 109.982 15.8477C109.872 15.9805 109.818 16.1484 109.818 16.3516Z" fill="#E4E4FF"/>
<path d="M122.062 20.6523C122.062 21.0195 122.109 21.3398 122.203 21.6133C122.304 21.8867 122.441 22.1172 122.613 22.3047C122.785 22.4844 122.984 22.6211 123.21 22.7148C123.445 22.8008 123.695 22.8438 123.96 22.8438C124.273 22.8438 124.574 22.7969 124.863 22.7031C125.152 22.6094 125.406 22.4648 125.625 22.2695C125.851 22.0742 126.031 21.8281 126.164 21.5312C126.296 21.2344 126.363 20.8867 126.363 20.4883V15.5195C126.363 14.7773 126.496 14.207 126.761 13.8086C127.035 13.4102 127.5 13.2109 128.156 13.2109C128.851 13.2109 129.347 13.4102 129.644 13.8086C129.949 14.207 130.101 14.7773 130.101 15.5195V22.6914C130.101 23.4336 129.949 24.0039 129.644 24.4023C129.347 24.8008 128.851 25 128.156 25C127.5 25 127.035 24.8008 126.761 24.4023C126.496 24.0039 126.363 23.4336 126.363 22.6914C126.199 23.0508 125.984 23.3789 125.718 23.6758C125.46 23.9727 125.156 24.2305 124.804 24.4492C124.46 24.6602 124.078 24.8242 123.656 24.9414C123.242 25.0586 122.792 25.1172 122.308 25.1172C121.785 25.1172 121.281 25.0273 120.796 24.8477C120.32 24.6602 119.898 24.3867 119.531 24.0273C119.164 23.6602 118.871 23.207 118.652 22.668C118.433 22.1289 118.324 21.5 118.324 20.7812V15.5195C118.324 14.7773 118.457 14.207 118.722 13.8086C118.996 13.4102 119.46 13.2109 120.117 13.2109C120.812 13.2109 121.308 13.4102 121.605 13.8086C121.91 14.207 122.062 14.7773 122.062 15.5195V20.6523Z" fill="#E4E4FF"/>
<path d="M131.798 15.5195C131.798 14.7773 131.931 14.207 132.197 13.8086C132.47 13.4102 132.935 13.2109 133.591 13.2109C134.287 13.2109 134.783 13.4102 135.08 13.8086C135.384 14.207 135.537 14.7773 135.537 15.5195C135.693 15.1445 135.904 14.8047 136.17 14.5C136.443 14.1875 136.752 13.9219 137.095 13.7031C137.447 13.4844 137.826 13.3164 138.232 13.1992C138.638 13.0742 139.06 13.0117 139.498 13.0117C139.904 13.0117 140.302 13.0664 140.693 13.1758C141.091 13.2773 141.459 13.4453 141.795 13.6797C142.138 13.9062 142.439 14.1953 142.697 14.5469C142.955 14.8984 143.154 15.3203 143.295 15.8125C143.537 15.2891 143.822 14.8477 144.15 14.4883C144.478 14.1289 144.834 13.8398 145.216 13.6211C145.599 13.4023 145.998 13.2461 146.412 13.1523C146.834 13.0586 147.255 13.0117 147.677 13.0117C148.177 13.0117 148.654 13.1016 149.107 13.2812C149.568 13.4609 149.97 13.7344 150.314 14.1016C150.666 14.4609 150.943 14.918 151.146 15.4727C151.357 16.0195 151.462 16.6602 151.462 17.3945V22.6914C151.462 23.4336 151.31 24.0039 151.005 24.4023C150.709 24.8008 150.212 25 149.517 25C148.861 25 148.396 24.8008 148.123 24.4023C147.857 24.0039 147.724 23.4336 147.724 22.6914V17.5586C147.724 17.207 147.677 16.8945 147.584 16.6211C147.49 16.3398 147.357 16.1055 147.185 15.918C147.021 15.7227 146.826 15.5781 146.599 15.4844C146.373 15.3828 146.13 15.332 145.873 15.332C145.552 15.332 145.248 15.3828 144.959 15.4844C144.67 15.5859 144.416 15.7422 144.197 15.9531C143.986 16.1641 143.814 16.4336 143.681 16.7617C143.556 17.0898 143.494 17.4844 143.494 17.9453V22.6914C143.494 23.4336 143.341 24.0039 143.037 24.4023C142.74 24.8008 142.244 25 141.548 25C140.892 25 140.427 24.8008 140.154 24.4023C139.888 24.0039 139.755 23.4336 139.755 22.6914V17.7812C139.755 16.9766 139.587 16.3672 139.252 15.9531C138.923 15.5391 138.474 15.332 137.904 15.332C137.568 15.332 137.255 15.3867 136.966 15.4961C136.677 15.6055 136.427 15.7656 136.216 15.9766C136.005 16.1875 135.837 16.4492 135.712 16.7617C135.595 17.0742 135.537 17.4336 135.537 17.8398V22.6914C135.537 23.4336 135.384 24.0039 135.08 24.4023C134.783 24.8008 134.287 25 133.591 25C132.935 25 132.47 24.8008 132.197 24.4023C131.931 24.0039 131.798 23.4336 131.798 22.6914V15.5195Z" fill="#E4E4FF"/>
<path d="M16.9966 23C13.6829 23 10.9966 20.3137 10.9966 17C10.9966 13.6863 13.6829 11 16.9966 11C20.3103 11 22.9966 13.6863 22.9966 17C22.9966 20.3137 20.3103 23 16.9966 23Z" fill="#E4E4FF"/>
<path d="M5.37281 19.0496C3.63406 19.3562 2.44224 21.0358 3.10969 22.6704C4.04153 24.9524 5.52816 26.9856 7.45547 28.5744C10.2114 30.8461 13.6874 32.06 17.2584 31.9977C20.8294 31.9354 24.261 30.6009 26.936 28.2343C28.8066 26.5793 30.2214 24.4954 31.0731 22.1823C31.6831 20.5254 30.4333 18.8884 28.6849 18.6427C26.9366 18.397 25.3668 19.6696 24.5032 21.2096C24.0351 22.0443 23.4274 22.8016 22.6994 23.4457C21.1646 24.8036 19.1957 25.5692 17.1469 25.605C15.098 25.6407 13.1036 24.9443 11.5224 23.6408C10.7723 23.0225 10.1386 22.2869 9.6416 21.469C8.72481 19.9601 7.11156 18.743 5.37281 19.0496Z" fill="#E4E4FF"/>
<path d="M31.8806 18.8745C31.9572 18.2604 31.9966 17.6348 31.9966 17C31.9966 8.71573 25.2809 2 16.9966 2C8.71231 2 1.99658 8.71573 1.99658 17C1.99658 17.8147 2.06153 18.6142 2.18654 19.3937C2.87552 18.4505 3.95084 17.7772 5.11234 17.5724C6.36903 17.3508 7.51116 17.6556 8.47685 18.2253C8.4198 17.8251 8.39028 17.416 8.39028 17C8.39028 12.2469 12.2435 8.3937 16.9966 8.3937C21.7497 8.3937 25.6029 12.2469 25.6029 17C25.6029 17.3134 25.5861 17.6229 25.5535 17.9276C26.4988 17.3243 27.6298 16.9796 28.8937 17.1573C30.0613 17.3214 31.1591 17.9564 31.8806 18.8745Z" fill="#E4E4FF"/>
</svg>
