<svg width="105" height="40" viewBox="0 0 105 40" fill="none" xmlns="http://www.w3.org/2000/svg">
<g clip-path="url(#clip0_0_410)">
<path d="M48.1326 35.2381H50.867V24.9238H48.1326V35.2381ZM48.1326 23.3153H50.867V20.8624H48.1326V23.3153Z" fill="#E4E4FF"/>
<path d="M52.6289 38.6159H55.3633V34.072H55.4036C55.9866 34.9566 56.9316 35.5397 58.3792 35.5397C61.0332 35.5397 62.8427 33.4286 62.8427 30.091C62.8427 26.874 61.0935 24.6423 58.3591 24.6423C56.9517 24.6423 55.9866 25.3058 55.3231 26.2105H55.2628V24.9238H52.6289V38.6159ZM57.7962 33.2677C56.1676 33.2677 55.303 32.0413 55.303 30.1714C55.303 28.3217 55.9866 26.8539 57.6956 26.8539C59.3845 26.8539 60.0681 28.2211 60.0681 30.1714C60.0681 32.1217 59.1835 33.2677 57.7962 33.2677Z" fill="#E4E4FF"/>
<path d="M68.2973 35.5397C70.8708 35.5397 72.6401 34.2931 72.6401 32.2222C72.6401 29.8095 70.7301 29.327 69.001 28.9651C67.5332 28.6635 66.166 28.583 66.166 27.6984C66.166 26.9545 66.8697 26.5523 67.9354 26.5523C69.1015 26.5523 69.8052 26.9545 69.9258 28.0603H72.3989C72.1978 25.9894 70.6899 24.6423 67.9756 24.6423C65.6232 24.6423 63.7734 25.7079 63.7734 27.9396C63.7734 30.1915 65.583 30.6942 67.4327 31.0561C68.8401 31.3375 70.147 31.4381 70.147 32.4233C70.147 33.1471 69.4634 33.6095 68.257 33.6095C67.0306 33.6095 66.1861 33.0868 66.0052 31.9005H63.4718C63.6327 34.0921 65.3015 35.5397 68.2973 35.5397Z" fill="#E4E4FF"/>
<path d="M83.0218 35.2381V24.9238H80.2874V30.8751C80.2874 32.2423 79.5033 33.2074 78.2165 33.2074C77.0504 33.2074 76.5075 32.5439 76.5075 31.3375V24.9238H73.7932V31.8C73.7932 34.0518 75.08 35.5196 77.3721 35.5196C78.8197 35.5196 79.6239 34.9767 80.3277 34.0317H80.388V35.2381H83.0218Z" fill="#E4E4FF"/>
<path d="M84.7905 35.2381H87.525V29.2465C87.525 27.8793 88.2689 26.9947 89.3747 26.9947C90.38 26.9947 90.9631 27.5978 90.9631 28.764V35.2381H93.6975V29.2465C93.6975 27.8793 94.4012 26.9947 95.5472 26.9947C96.5525 26.9947 97.1356 27.5978 97.1356 28.764V35.2381H99.87V28.3016C99.87 26.0497 98.6435 24.6423 96.4721 24.6423C95.1652 24.6423 94.0795 25.3259 93.3758 26.4518H93.3356C92.8329 25.3661 91.7874 24.6423 90.4805 24.6423C89.053 24.6423 88.0477 25.3661 87.4847 26.3111H87.4244V24.9238H84.7905V35.2381Z" fill="#E4E4FF"/>
<path d="M48.1728 17.572H50.9072V3.19629H48.1728V17.572Z" fill="#E4E4FF"/>
<path d="M57.5932 17.8736C60.7901 17.8736 62.9816 15.5011 62.9816 12.4249C62.9816 9.34869 60.7901 6.9762 57.5932 6.9762C54.3964 6.9762 52.2048 9.34869 52.2048 12.4249C52.2048 15.5011 54.3964 17.8736 57.5932 17.8736ZM57.5932 15.7826C55.9043 15.7826 54.9795 14.4355 54.9795 12.4249C54.9795 10.4143 55.9043 9.04711 57.5932 9.04711C59.262 9.04711 60.207 10.4143 60.207 12.4249C60.207 14.4355 59.262 15.7826 57.5932 15.7826Z" fill="#E4E4FF"/>
<path d="M68.7966 21.0906C70.3247 21.0906 71.6517 20.7287 72.5162 19.9244C73.2802 19.2207 73.7427 18.2355 73.7427 16.7879V7.25768H71.1088V8.3434H71.0686C70.4453 7.47884 69.5003 6.9762 68.2135 6.9762C65.5998 6.9762 63.75 8.94658 63.75 12.0228C63.75 15.1392 66.0019 16.9487 68.294 16.9487C69.6009 16.9487 70.385 16.426 70.9882 15.7424H71.0485V16.8683C71.0485 18.2757 70.3046 19.0196 68.7564 19.0196C67.4897 19.0196 66.9067 18.517 66.6855 17.8736H63.9712C64.2527 19.8842 65.9818 21.0906 68.7966 21.0906ZM68.7564 14.7572C67.349 14.7572 66.4241 13.7318 66.4241 11.9826C66.4241 10.2535 67.349 9.16774 68.7363 9.16774C70.385 9.16774 71.1892 10.4545 71.1892 11.9625C71.1892 13.4905 70.4855 14.7572 68.7564 14.7572Z" fill="#E4E4FF"/>
<path d="M80.3891 17.8736C83.5859 17.8736 85.7775 15.5011 85.7775 12.4249C85.7775 9.34869 83.5859 6.9762 80.3891 6.9762C77.1923 6.9762 75.0007 9.34869 75.0007 12.4249C75.0007 15.5011 77.1923 17.8736 80.3891 17.8736ZM80.3891 15.7826C78.7002 15.7826 77.7753 14.4355 77.7753 12.4249C77.7753 10.4143 78.7002 9.04711 80.3891 9.04711C82.0579 9.04711 83.0029 10.4143 83.0029 12.4249C83.0029 14.4355 82.0579 15.7826 80.3891 15.7826Z" fill="#E4E4FF"/>
<path d="M88.1745 13.6313H99.9966V11.2789H88.1745V13.6313Z" fill="#E4E4FF"/>
<path d="M100.864 23.1717C100.864 22.709 101.239 22.3339 101.702 22.3339H103.377C103.84 22.3339 104.215 22.709 104.215 23.1717C104.215 23.6343 103.84 24.0094 103.377 24.0094H101.702C101.239 24.0094 100.864 23.6343 100.864 23.1717Z" fill="#E4E4FF"/>
<path fill-rule="evenodd" clip-rule="evenodd" d="M20.5182 0C31.5639 0 40.5182 8.9543 40.5182 20C40.5182 31.0457 31.5639 40 20.5182 40C9.47249 40 0.518188 31.0457 0.518188 20C0.518188 8.9543 9.47249 0 20.5182 0ZM19.7953 1.49659C17.5137 1.81769 15.3411 3.65108 13.6546 6.7174C13.1654 7.60683 12.724 8.58946 12.3393 9.65044C14.6325 9.07417 17.1516 8.73442 19.7953 8.68187V1.49659ZM10.649 10.1308C11.1273 8.62958 11.7125 7.2484 12.3878 6.02065C13.2238 4.50059 14.216 3.18795 15.3339 2.17977C9.25498 3.94523 4.46341 8.73679 2.69796 14.8157C3.70613 13.6978 5.01878 12.7056 6.53884 11.8696C7.76659 11.1943 9.14776 10.6091 10.649 10.1308ZM10.1686 11.8211C9.59235 14.1143 9.25261 16.6334 9.20006 19.2771H2.01477C2.33588 16.9954 4.16927 14.8228 7.23559 13.1364C8.12502 12.6472 9.10765 12.2058 10.1686 11.8211ZM10.6462 19.2771C10.7059 16.392 11.1212 13.6834 11.8084 11.2902C14.2016 10.603 16.9103 10.1876 19.7953 10.1279V13.2508C18.719 16.0062 16.5238 18.2012 13.7683 19.2771H10.6462ZM9.20006 20.7229H2.01477C2.33588 23.0046 4.16927 25.1771 7.23559 26.8636C8.12502 27.3528 9.10765 27.7942 10.1686 28.1789C9.59235 25.8857 9.25261 23.3666 9.20006 20.7229ZM11.8084 28.7098C11.1212 26.3166 10.7059 23.608 10.6462 20.7229H13.7683C16.5238 21.7988 18.7191 23.9938 19.7953 26.7492V29.8721C16.9103 29.8124 14.2016 29.397 11.8084 28.7098ZM10.649 29.8692C9.14776 29.3909 7.76659 28.8057 6.53884 28.1304C5.01878 27.2944 3.70613 26.3022 2.69796 25.1843C4.46341 31.2632 9.25498 36.0548 15.3339 37.8202C14.216 36.812 13.2238 35.4994 12.3878 33.9793C11.7125 32.7516 11.1273 31.3704 10.649 29.8692ZM19.7953 38.5034C17.5137 38.1823 15.3411 36.3489 13.6546 33.2826C13.1654 32.3932 12.724 31.4105 12.3393 30.3496C14.6325 30.9258 17.1516 31.2656 19.7953 31.3181V38.5034ZM25.7025 37.8202C26.8204 36.812 27.8126 35.4994 28.6487 33.9793C29.3239 32.7516 29.9091 31.3704 30.3874 29.8692C31.8886 29.3909 33.2698 28.8057 34.4976 28.1304C36.0176 27.2944 37.3303 26.3022 38.3384 25.1843C36.573 31.2632 31.7814 36.0548 25.7025 37.8202ZM28.6971 30.3496C28.3124 31.4105 27.871 32.3932 27.3818 33.2826C25.6954 36.3489 23.5228 38.1823 21.2411 38.5034V31.3181C23.8848 31.2656 26.4039 30.9258 28.6971 30.3496ZM30.8678 28.1789C31.9287 27.7942 32.9114 27.3528 33.8008 26.8636C36.8671 25.1771 38.7005 23.0046 39.0216 20.7229H31.8363C31.7838 23.3666 31.444 25.8857 30.8678 28.1789ZM30.3903 20.7229C30.3306 23.608 29.9152 26.3166 29.228 28.7098C26.8348 29.397 24.1262 29.8124 21.2411 29.8721V26.7515C22.317 23.9951 24.5127 21.7991 27.269 20.7229H30.3903ZM31.8363 19.2771H39.0216C38.7005 16.9954 36.8671 14.8228 33.8008 13.1364C32.9114 12.6472 31.9287 12.2058 30.8678 11.8211C31.444 14.1143 31.7838 16.6334 31.8363 19.2771ZM29.228 11.2902C29.9152 13.6834 30.3306 16.392 30.3903 19.2771H27.269C24.5127 18.2009 22.317 16.0049 21.2411 13.2485V10.1279C24.1262 10.1876 26.8348 10.603 29.228 11.2902ZM30.3874 10.1308C31.8886 10.6091 33.2698 11.1943 34.4976 11.8696C36.0176 12.7056 37.3303 13.6978 38.3384 14.8157C36.573 8.73679 31.7814 3.94523 25.7025 2.17977C26.8204 3.18795 27.8126 4.50059 28.6487 6.02065C29.3239 7.2484 29.9091 8.62958 30.3874 10.1308ZM21.2411 1.49659C23.5228 1.81769 25.6954 3.65108 27.3818 6.7174C27.871 7.60684 28.3124 8.58946 28.6971 9.65044C26.4039 9.07417 23.8848 8.73442 21.2411 8.68187V1.49659Z" fill="#E4E4FF"/>
</g>
<defs>
<clipPath id="clip0_0_410">
<rect width="105" height="40" fill="white" transform="translate(-0.00341797)"/>
</clipPath>
</defs>
</svg>
