<svg width="186" height="41" viewBox="0 0 186 41" fill="none" xmlns="http://www.w3.org/2000/svg">
<g clip-path="url(#clip0_0_437)">
<path fill-rule="evenodd" clip-rule="evenodd" d="M59.0338 2.72873C59.0338 1.33934 60.1724 0.213013 61.5771 0.213013H66.0077C67.0074 0.213013 67.9763 0.555712 68.7493 1.18277L70.0971 2.27605L70.1308 2.30646C70.1619 2.29608 70.193 2.28594 70.2242 2.27605C72.6558 1.50566 75.606 1.35915 78.6171 1.35915C81.6282 1.35915 84.5784 1.50566 87.01 2.27605C87.0412 2.28594 87.0723 2.29608 87.1034 2.30646L87.1371 2.27605L88.4849 1.18277C89.2579 0.555712 90.2268 0.213013 91.2265 0.213013H95.6571C97.0618 0.213013 98.2004 1.33934 98.2004 2.72873V4.28391C98.2004 5.48716 97.688 6.63475 96.7888 7.44515L95.7015 8.42514C95.1707 8.90356 94.5336 9.25174 93.8416 9.44156L93.5844 9.51212C94.5919 11.8901 95.1485 14.4319 95.1485 16.4881C95.1485 24.7595 89.9746 28.3318 85.4158 31.4794C81.8257 33.9582 78.6171 36.1735 78.6171 40.2131C78.6171 36.1735 75.4085 33.9582 71.8184 31.4794C67.2596 28.3318 62.0857 24.7595 62.0857 16.4881C62.0857 14.4319 62.6423 11.8901 63.6498 9.51212L63.3926 9.44156C62.7006 9.25174 62.0635 8.90356 61.5327 8.42514L60.4454 7.44515C59.5462 6.63475 59.0338 5.48716 59.0338 4.28391V2.72873ZM81.9234 23.2503C81.9234 23.6455 81.7492 24.0244 81.4392 24.3039C81.1292 24.5833 80.7087 24.7403 80.2702 24.7403C79.8917 24.7403 79.5265 24.6232 79.2343 24.4114C79.7317 25.7284 81.0046 26.9763 82.9407 24.9695C84.6499 23.1048 82.8647 19.1719 81.1255 16.8381C80.5458 16.0602 79.5941 15.6858 78.6171 15.6858C77.6401 15.6858 76.6884 16.0602 76.1087 16.8381C74.3695 19.1719 72.5843 23.1048 74.2935 24.9695C76.2296 26.9763 77.5025 25.7284 77.9999 24.4114C77.7077 24.6232 77.3425 24.7403 76.964 24.7403C76.5255 24.7403 76.105 24.5833 75.795 24.3039C75.485 24.0244 75.3108 23.6455 75.3108 23.2503H81.9234ZM72.2864 11.6082H67.681L71.3105 14.4829C72.1092 15.1154 73.2766 14.9132 73.7708 14.0567C74.3948 12.9753 73.566 11.6082 72.2864 11.6082ZM84.9478 11.6082H89.5532L85.9237 14.4829C85.125 15.1154 83.9576 14.9132 83.4634 14.0567C82.8394 12.9753 83.6682 11.6082 84.9478 11.6082Z" fill="#E4E4FF"/>
<path d="M103.687 28.5463H107.767V13.1563H103.687V28.5463ZM103.687 10.7563H107.767V7.09631H103.687V10.7563Z" fill="#E4E4FF"/>
<path d="M110.396 33.5863H114.476V26.8063H114.536C115.406 28.1263 116.816 28.9963 118.976 28.9963C122.936 28.9963 125.636 25.8463 125.636 20.8663C125.636 16.0663 123.026 12.7363 118.946 12.7363C116.846 12.7363 115.406 13.7263 114.416 15.0763H114.326V13.1563H110.396V33.5863ZM118.106 25.6063C115.676 25.6063 114.386 23.7763 114.386 20.9863C114.386 18.2263 115.406 16.0363 117.956 16.0363C120.476 16.0363 121.496 18.0763 121.496 20.9863C121.496 23.8963 120.176 25.6063 118.106 25.6063Z" fill="#E4E4FF"/>
<path d="M133.775 28.9963C137.615 28.9963 140.255 27.1363 140.255 24.0463C140.255 20.4463 137.405 19.7263 134.825 19.1863C132.635 18.7363 130.595 18.6163 130.595 17.2963C130.595 16.1863 131.645 15.5863 133.235 15.5863C134.975 15.5863 136.025 16.1863 136.205 17.8363H139.895C139.595 14.7463 137.345 12.7363 133.295 12.7363C129.785 12.7363 127.025 14.3263 127.025 17.6563C127.025 21.0163 129.725 21.7663 132.485 22.3063C134.585 22.7263 136.535 22.8763 136.535 24.3463C136.535 25.4263 135.515 26.1163 133.715 26.1163C131.885 26.1163 130.625 25.3363 130.355 23.5663H126.575C126.815 26.8363 129.305 28.9963 133.775 28.9963Z" fill="#E4E4FF"/>
<path d="M155.746 28.5463V13.1562H151.666V22.0363C151.666 24.0763 150.496 25.5163 148.576 25.5163C146.836 25.5163 146.026 24.5262 146.026 22.7262V13.1562H141.976V23.4163C141.976 26.7762 143.896 28.9662 147.316 28.9662C149.476 28.9662 150.676 28.1562 151.726 26.7463H151.816V28.5463H155.746Z" fill="#E4E4FF"/>
<path d="M158.385 28.5463H162.465V19.6063C162.465 17.5663 163.575 16.2463 165.225 16.2463C166.725 16.2463 167.595 17.1463 167.595 18.8863V28.5463H171.675V19.6063C171.675 17.5663 172.725 16.2463 174.435 16.2463C175.935 16.2463 176.805 17.1463 176.805 18.8863V28.5463H180.885V18.1963C180.885 14.8363 179.055 12.7363 175.815 12.7363C173.865 12.7363 172.245 13.7563 171.195 15.4363H171.135C170.385 13.8163 168.825 12.7363 166.875 12.7363C164.745 12.7363 163.245 13.8163 162.405 15.2263H162.315V13.1563H158.385V28.5463Z" fill="#E4E4FF"/>
<path d="M0.680664 28.5463H4.76066V7.09631H0.680664V28.5463Z" fill="#E4E4FF"/>
<path d="M14.7369 28.9963C19.5069 28.9963 22.7769 25.4563 22.7769 20.8663C22.7769 16.2763 19.5069 12.7363 14.7369 12.7363C9.96684 12.7363 6.69684 16.2763 6.69684 20.8663C6.69684 25.4563 9.96684 28.9963 14.7369 28.9963ZM14.7369 25.8763C12.2169 25.8763 10.8369 23.8663 10.8369 20.8663C10.8369 17.8663 12.2169 15.8263 14.7369 15.8263C17.2269 15.8263 18.6369 17.8663 18.6369 20.8663C18.6369 23.8663 17.2269 25.8763 14.7369 25.8763Z" fill="#E4E4FF"/>
<path d="M31.4534 33.7963C33.7334 33.7963 35.7134 33.2563 37.0034 32.0563C38.1434 31.0063 38.8334 29.5363 38.8334 27.3763V13.1563H34.9034V14.7763H34.8434C33.9134 13.4863 32.5034 12.7363 30.5834 12.7363C26.6834 12.7363 23.9234 15.6763 23.9234 20.2663C23.9234 24.9163 27.2834 27.6163 30.7034 27.6163C32.6534 27.6163 33.8234 26.8363 34.7234 25.8163H34.8134V27.4963C34.8134 29.5963 33.7034 30.7063 31.3934 30.7063C29.5034 30.7063 28.6334 29.9563 28.3034 28.9963H24.2534C24.6734 31.9963 27.2534 33.7963 31.4534 33.7963ZM31.3934 24.3463C29.2934 24.3463 27.9134 22.8163 27.9134 20.2063C27.9134 17.6263 29.2934 16.0063 31.3634 16.0063C33.8234 16.0063 35.0234 17.9263 35.0234 20.1763C35.0234 22.4563 33.9734 24.3463 31.3934 24.3463Z" fill="#E4E4FF"/>
<path d="M48.7505 28.9963C53.5205 28.9963 56.7905 25.4563 56.7905 20.8663C56.7905 16.2763 53.5205 12.7363 48.7505 12.7363C43.9805 12.7363 40.7105 16.2763 40.7105 20.8663C40.7105 25.4563 43.9805 28.9963 48.7505 28.9963ZM48.7505 25.8763C46.2305 25.8763 44.8505 23.8663 44.8505 20.8663C44.8505 17.8663 46.2305 15.8263 48.7505 15.8263C51.2405 15.8263 52.6505 17.8663 52.6505 20.8663C52.6505 23.8663 51.2405 25.8763 48.7505 25.8763Z" fill="#E4E4FF"/>
<path d="M180.701 9.79626C180.701 9.1059 181.26 8.54626 181.951 8.54626H184.451C185.141 8.54626 185.701 9.1059 185.701 9.79626C185.701 10.4866 185.141 11.0463 184.451 11.0463H181.951C181.26 11.0463 180.701 10.4866 180.701 9.79626Z" fill="#E4E4FF"/>
</g>
<defs>
<clipPath id="clip0_0_437">
<rect width="186" height="41" fill="white" transform="translate(-0.00341797)"/>
</clipPath>
</defs>
</svg>
