<svg width="15" height="15" viewBox="0 0 15 15" fill="none" xmlns="http://www.w3.org/2000/svg">
<g clip-path="url(#clip0_120_56)">
<path d="M13.798 4.35527C13.7287 4.07843 13.5876 3.82477 13.3889 3.61992C13.1902 3.41508 12.9409 3.26629 12.6663 3.1886C11.663 2.9436 7.64967 2.9436 7.64967 2.9436C7.64967 2.9436 3.63633 2.9436 2.633 3.21194C2.35839 3.28963 2.10915 3.43841 1.91045 3.64326C1.71175 3.8481 1.57063 4.10176 1.50133 4.3786C1.31771 5.39684 1.22789 6.42978 1.233 7.46444C1.22645 8.50688 1.31628 9.5477 1.50133 10.5736C1.57773 10.8418 1.72201 11.0859 1.92025 11.282C2.11849 11.4782 2.36398 11.62 2.633 11.6936C3.63633 11.9619 7.64967 11.9619 7.64967 11.9619C7.64967 11.9619 11.663 11.9619 12.6663 11.6936C12.9409 11.6159 13.1902 11.4671 13.3889 11.2623C13.5876 11.0574 13.7287 10.8038 13.798 10.5269C13.9802 9.51636 14.07 8.4913 14.0663 7.46444C14.0729 6.42199 13.9831 5.38118 13.798 4.35527Z" stroke="white" stroke-linecap="round" stroke-linejoin="round"/>
<path d="M6.33716 9.37213L9.69133 7.46463L6.33716 5.55713V9.37213Z" stroke="white" stroke-linecap="round" stroke-linejoin="round"/>
</g>
<defs>
<clipPath id="clip0_120_56">
<rect width="14" height="14" fill="white" transform="translate(0.649658 0.610352)"/>
</clipPath>
</defs>
</svg>
